# Blender 3.3.1
# www.blender.org
mtllib TV.mtl
o Cube
v -1.291400 25.915583 -15.322746
v -1.291400 7.992881 -15.322749
v -1.291400 25.915577 19.882467
v -1.291400 7.992876 19.882465
v -2.557832 25.915583 -15.322746
v -2.557832 7.992881 -15.322749
v -2.557832 25.915577 19.882467
v -2.557832 7.992876 19.882465
v -2.557832 24.843473 -13.216821
v -2.557832 24.843468 17.776545
v -2.557832 9.064986 17.776543
v -2.557832 9.064991 -13.216823
v -1.291400 24.843468 17.776545
v -1.291400 24.843473 -13.216821
v -1.291400 9.064986 17.776543
v -1.291400 9.064991 -13.216823
v -2.557832 7.992879 -0.348453
v -1.291400 7.992879 -0.348453
v -2.557832 7.992878 4.908170
v -1.291400 7.992878 4.908170
v -2.557832 4.387086 -0.348453
v -1.291400 4.387086 -0.348453
v -2.557832 4.387085 4.908169
v -1.291400 4.387085 4.908169
v -0.908905 25.915583 -15.322746
v -0.908905 7.992881 -15.322749
v -0.908905 25.915577 19.882467
v -0.908905 7.992876 19.882465
v -2.894519 25.915583 -15.322746
v -2.894519 7.992881 -15.322749
v -2.894519 24.843473 -13.216821
v -2.894519 24.843468 17.776545
v -2.894519 7.992876 19.882465
v -2.894519 9.064986 17.776543
v -2.894519 9.064991 -13.216823
v -2.894519 25.915577 19.882467
v -1.291400 3.080563 -0.348453
v -2.557832 3.080563 -0.348453
v -1.291400 4.387086 -0.348453
v -2.557832 4.387086 -0.348453
v -1.291400 3.080563 -0.348453
v -2.557832 3.080563 -0.348453
v -1.291400 3.306508 4.908169
v -1.291400 3.306509 -0.348453
v -2.557832 3.306508 4.908169
v -2.557832 3.306509 -0.348453
v -2.557832 4.387085 8.433716
v -1.291400 4.387085 8.433716
v -2.557832 3.306508 8.433716
v -1.291400 3.306508 8.433716
v -2.557832 4.387086 -4.450860
v -1.291400 4.387086 -4.450860
v -2.557832 3.306509 -4.450860
v -1.291400 3.306509 -4.450860
vn -0.0000 -0.0000 1.0000
vn 1.0000 -0.0000 -0.0000
vn -0.0000 -0.0000 -1.0000
vn -0.0000 1.0000 -0.0000
vn -0.0000 -1.0000 -0.0000
vn -1.0000 -0.0000 -0.0000
vt 0.091240 0.710635
vt 0.216682 0.710635
vt 0.135454 0.710635
vt 0.128254 0.822572
vt 0.135454 0.753249
vt 0.179668 0.710635
vt 0.091240 0.822572
vt 0.179668 0.753249
vt 0.091240 0.754849
vt 0.216682 0.754849
vt 0.135454 0.754849
vt 0.128254 0.778358
vt 0.135454 0.709035
vt 0.179668 0.754849
vt 0.179668 0.709035
vt 0.091240 0.778358
vt 0.167179 0.778358
vt 0.249268 0.709035
vt 0.216682 0.709035
vt 0.128254 0.810817
vt 0.206103 0.810817
vt 0.167179 0.810817
vt 0.206103 0.778358
vt 0.238689 0.810817
vt 0.216682 0.753249
vt 0.736479 0.754995
vt 0.128254 0.766603
vt 0.167179 0.822572
vt 0.249268 0.753249
vt 0.612159 0.754995
vt 0.206103 0.766603
vt 0.736479 0.673040
vt 0.167179 0.766603
vt 0.206103 0.822572
vt 0.238689 0.766603
vt 0.612159 0.673040
vt 0.222209 0.417635
vt 0.253615 0.422093
vt 0.227736 0.417635
vt 0.249268 0.352771
vt 0.249268 0.396985
vt 0.222209 0.408740
vt 0.262510 0.422093
vt 0.227736 0.408740
vt 0.258164 0.352771
vt 0.258164 0.396985
vt 0.216682 0.697281
vt 0.091240 0.697281
vt 0.165269 0.866786
vt 0.128254 0.835925
vt 0.135454 0.697281
vt 0.165269 0.822572
vt 0.179668 0.697281
vt 0.128254 0.866786
vt 0.135454 0.766603
vt 0.091240 0.835925
vt 0.128254 0.822572
vt 0.179668 0.766603
vt 0.216682 0.766603
vt 0.091240 0.766603
vt 0.165269 0.866786
vt 0.128254 0.766603
vt 0.135454 0.766603
vt 0.165269 0.822572
vt 0.249268 0.697281
vt 0.167179 0.766603
vt 0.167483 0.864141
vt 0.128254 0.822572
vt 0.216682 0.697281
vt 0.200069 0.864141
vt 0.179668 0.697281
vt 0.091240 0.766603
vt 0.202283 0.822572
vt 0.167179 0.822572
vt 0.206103 0.822572
vt 0.200069 0.825216
vt 0.238689 0.822572
vt 0.206103 0.766603
vt 0.167483 0.825216
vt 0.179668 0.766603
vt 0.135454 0.697281
vt 0.202283 0.866786
vt 0.258164 0.396985
vt 0.262510 0.422093
vt 0.227736 0.408740
vt 0.258164 0.352771
vt 0.222209 0.408740
vt 0.227736 0.408740
vt 0.258164 0.352771
vt 0.258164 0.396985
vt 0.227736 0.408740
vt 0.258164 0.352771
vt 0.258164 0.396985
vt 0.222209 0.408740
vt 0.262510 0.422093
vt 0.222209 0.408740
vt 0.262510 0.422093
s 0
usemtl Material.001
f 9/17/1 12/23/1 16/34/1 14/28/1
f 24/46/2 22/43/2 18/38/2 20/41/2
f 11/22/3 34/74/3 32/68/3 10/20/3
f 5/10/4 29/59/4 36/80/4 7/14/4
f 7/13/1 36/81/1 33/71/1 8/15/1
f 8/16/5 33/72/5 30/62/5 6/12/5
f 6/11/3 30/63/3 29/60/3 5/9/3
f 3/6/4 27/53/4 25/47/4 1/2/4
f 23/44/6 19/39/6 17/37/6 21/42/6
f 12/24/4 35/77/4 34/75/4 11/21/4
f 2/4/5 26/50/5 28/56/5 4/7/5
f 1/1/3 25/48/3 26/51/3 2/3/3
f 25/49/2 27/54/2 28/57/2 26/52/2
f 35/79/6 33/73/6 34/76/6
f 29/61/6 32/70/6 36/82/6
f 10/19/5 32/69/5 31/65/5 9/18/5
f 9/17/1 31/66/1 35/78/1 12/23/1
f 5/9/3 1/1/3 2/3/3 6/11/3
f 9/18/5 14/29/5 13/25/5 10/19/5
f 3/5/1 7/13/1 8/15/1 4/8/1
f 6/12/5 2/4/5 4/7/5 8/16/5
f 19/40/1 23/45/1 24/46/1 20/41/1
f 4/8/1 28/58/1 27/55/1 3/5/1
f 16/35/4 12/24/4 11/21/4 15/31/4
f 16/36/6 15/32/6 13/26/6 14/30/6
f 10/20/3 13/27/3 15/33/3 11/22/3
f 35/79/6 31/67/6 29/61/6 30/64/6
f 7/14/4 3/6/4 1/2/4 5/10/4
f 35/79/6 30/64/6 33/73/6
f 32/70/6 34/76/6 33/73/6 36/82/6
f 29/61/6 31/67/6 32/70/6
f 18/38/3 22/43/3 21/42/3 17/37/3
f 23/44/6 45/85/6 49/91/6 47/88/6
f 43/83/5 45/86/5 46/87/5 44/84/5
f 22/43/2 24/46/2 43/83/2 44/84/2
f 46/87/6 21/42/6 51/94/6 53/96/6
f 23/44/6 21/42/6 46/87/6 45/85/6
f 48/90/1 47/89/1 49/92/1 50/93/1
f 24/46/4 23/45/4 47/89/4 48/90/4
f 43/83/2 24/46/2 48/90/2 50/93/2
f 45/86/5 43/83/5 50/93/5 49/92/5
f 51/94/3 52/95/3 54/97/3 53/96/3
f 44/84/5 46/87/5 53/96/5 54/97/5
f 21/42/4 22/43/4 52/95/4 51/94/4
f 22/43/2 44/84/2 54/97/2 52/95/2
l 22 39
l 21 40
l 41 37
l 38 42
