# Blender 3.3.1
# www.blender.org
mtllib TV.mtl
o Cube
v -1.291400 25.915581 -15.322750
v -1.291400 7.992879 -15.322750
v -1.291400 25.915581 19.882463
v -1.291400 7.992879 19.882463
v -2.557832 25.915581 -15.322750
v -2.557832 7.992879 -15.322750
v -2.557832 25.915581 19.882463
v -2.557832 7.992879 19.882463
v -2.557832 24.843472 -13.216825
v -2.557832 24.843472 17.776541
v -2.557832 9.064989 17.776541
v -2.557832 9.064989 -13.216825
v -1.291400 24.843472 17.776541
v -1.291400 24.843472 -13.216825
v -1.291400 9.064989 17.776541
v -1.291400 9.064989 -13.216825
v -2.557832 7.992879 -0.348454
v -1.291400 7.992879 -0.348454
v -2.557832 7.992879 4.908169
v -1.291400 7.992879 4.908169
v -2.557832 4.387086 -0.348454
v -1.291400 4.387086 -0.348454
v -2.557832 4.387086 4.908169
v -1.291400 4.387086 4.908169
v -0.908905 25.915581 -15.322750
v -0.908905 7.992879 -15.322750
v -0.908905 25.915581 19.882463
v -0.908905 7.992879 19.882463
v -2.894519 25.915581 -15.322750
v -2.894519 7.992879 -15.322750
v -2.894519 24.843472 -13.216825
v -2.894519 24.843472 17.776541
v -2.894519 7.992879 19.882463
v -2.894519 9.064989 17.776541
v -2.894519 9.064989 -13.216825
v -2.894519 25.915581 19.882463
v -1.291400 3.080563 -0.348454
v -2.557832 3.080563 -0.348454
v -1.291400 4.387086 -0.348454
v -2.557832 4.387086 -0.348454
v -1.291400 3.080563 -0.348454
v -2.557832 3.080563 -0.348454
v -1.291400 4.387086 -4.818394
v -2.557832 4.387086 -4.818394
v -2.557832 3.080563 -4.818394
v -1.291400 3.080563 -4.818394
v -2.557832 4.387086 9.378108
v -1.291400 4.387086 9.378108
v -1.291400 3.080563 9.378108
v -2.557832 3.080563 9.378108
v -0.621434 3.080563 9.378108
v -0.621434 4.387086 9.378108
v -0.621434 4.387086 4.908169
v -0.621434 4.387086 -0.348454
v -0.621434 4.387086 -4.818394
v -0.621434 3.080563 -4.818394
v -3.227798 3.080563 -4.818394
v -3.227798 4.387086 -4.818394
v -3.227798 4.387086 -0.348454
v -3.227798 4.387086 4.908169
v -3.227798 4.387086 9.378108
v -3.227798 3.080563 9.378108
vn -0.0000 -0.0000 1.0000
vn -0.0000 -0.0000 -1.0000
vn -0.0000 -1.0000 -0.0000
vn -0.0000 1.0000 -0.0000
vn -1.0000 -0.0000 -0.0000
vn 1.0000 -0.0000 -0.0000
vt 0.216682 0.710635
vt 0.091240 0.710635
vt 0.135454 0.710635
vt 0.128254 0.822572
vt 0.135454 0.753249
vt 0.179668 0.710635
vt 0.091240 0.822572
vt 0.179668 0.753249
vt 0.091240 0.754849
vt 0.216682 0.754849
vt 0.135454 0.754849
vt 0.128254 0.778358
vt 0.179668 0.754849
vt 0.135454 0.709035
vt 0.179668 0.709035
vt 0.091240 0.778358
vt 0.249268 0.709035
vt 0.167179 0.778358
vt 0.128254 0.810817
vt 0.216682 0.709035
vt 0.206103 0.810817
vt 0.167179 0.810817
vt 0.206103 0.778358
vt 0.238689 0.810817
vt 0.216682 0.753249
vt 0.128254 0.766603
vt 0.736479 0.754995
vt 0.167179 0.822572
vt 0.612159 0.754995
vt 0.249268 0.753249
vt 0.206103 0.766603
vt 0.167179 0.766603
vt 0.736479 0.673040
vt 0.206103 0.822572
vt 0.238689 0.766603
vt 0.612159 0.673040
vt 0.253615 0.466307
vt 0.222209 0.417635
vt 0.253615 0.422093
vt 0.222209 0.417635
vt 0.249268 0.352771
vt 0.227736 0.417635
vt 0.249268 0.396985
vt 0.216682 0.417635
vt 0.262510 0.466307
vt 0.135454 0.422093
vt 0.222209 0.408740
vt 0.262510 0.422093
vt 0.135454 0.422093
vt 0.222209 0.408740
vt 0.262863 0.396985
vt 0.258164 0.352771
vt 0.227736 0.408740
vt 0.258164 0.396985
vt 0.262863 0.352771
vt 0.216682 0.408740
vt 0.216682 0.697281
vt 0.091240 0.697281
vt 0.165269 0.866786
vt 0.165269 0.822572
vt 0.128254 0.835925
vt 0.135454 0.697281
vt 0.135454 0.766603
vt 0.179668 0.697281
vt 0.128254 0.866786
vt 0.091240 0.835925
vt 0.179668 0.766603
vt 0.128254 0.822572
vt 0.091240 0.766603
vt 0.165269 0.866786
vt 0.216682 0.766603
vt 0.135454 0.766603
vt 0.165269 0.822572
vt 0.128254 0.766603
vt 0.167483 0.864141
vt 0.167179 0.766603
vt 0.249268 0.697281
vt 0.200069 0.864141
vt 0.128254 0.822572
vt 0.216682 0.697281
vt 0.202283 0.822572
vt 0.091240 0.766603
vt 0.179668 0.697281
vt 0.206103 0.822572
vt 0.200069 0.825216
vt 0.167179 0.822572
vt 0.238689 0.822572
vt 0.167483 0.825216
vt 0.206103 0.766603
vt 0.202283 0.866786
vt 0.179668 0.766603
vt 0.135454 0.697281
vt 0.253615 0.466307
vt 0.135454 0.422093
vt 0.222209 0.408740
vt 0.135454 0.422093
vt 0.253615 0.510521
vt 0.222209 0.408740
vt 0.258315 0.466307
vt 0.262510 0.489697
vt 0.106166 0.491416
vt 0.262510 0.445484
vt 0.258315 0.510521
vt 0.121092 0.514806
vt 0.253615 0.489697
vt 0.265733 0.445484
vt 0.265733 0.489697
vt 0.253615 0.445484
vt 0.258164 0.396985
vt 0.265733 0.489697
vt 0.106166 0.514806
vt 0.258164 0.352771
vt 0.265733 0.445484
vt 0.091240 0.491416
vt 0.238689 0.445484
vt 0.268956 0.445484
vt 0.268956 0.489697
vt 0.238689 0.489697
vt 0.238092 0.492988
vt 0.268956 0.422094
vt 0.238689 0.422094
vt 0.091240 0.514806
vt 0.234869 0.492988
vt 0.265733 0.422094
vt 0.234869 0.488288
vt 0.234869 0.482762
vt 0.234869 0.478062
vt 0.262510 0.513087
vt 0.106166 0.514806
vt 0.238092 0.478062
vt 0.265733 0.513087
vt 0.253615 0.422094
vt 0.124315 0.506342
vt 0.265733 0.422094
vt 0.253615 0.513087
vt 0.121092 0.491416
vt 0.121092 0.506342
vt 0.262510 0.422094
vt 0.121092 0.501642
vt 0.121092 0.496115
vt 0.121092 0.491416
vt 0.265733 0.513087
vt 0.106166 0.491416
vt 0.124315 0.491416
vt 0.268956 0.513087
vt 0.238689 0.513087
s 0
usemtl Material
f 3/5/1 8/15/1 4/8/1
f 5/9/2 2/3/2 6/11/2
f 9/17/3 13/25/3 10/20/3
f 9/18/1 16/34/1 14/28/1
f 10/19/2 15/32/2 11/22/2
f 16/35/4 11/21/4 15/31/4
f 12/24/4 34/84/4 11/21/4
f 7/13/4 1/1/4 5/10/4
f 6/11/2 29/69/2 5/9/2
f 6/12/3 4/7/3 8/16/3
f 2/4/3 28/66/3 4/7/3
f 19/41/1 24/54/1 20/43/1
f 17/37/2 22/48/2 21/45/2
f 16/36/5 13/27/5 14/29/5
f 4/8/1 27/63/1 3/5/1
f 3/6/4 25/57/4 1/1/4
f 1/2/2 26/62/2 2/3/2
f 35/88/5 33/81/5 34/85/5
f 29/70/5 32/78/5 36/90/5
f 9/18/1 35/89/1 12/23/1
f 5/10/4 36/91/4 7/13/4
f 8/16/3 30/74/3 6/12/3
f 7/14/1 33/83/1 8/15/1
f 11/22/2 32/79/2 10/19/2
f 10/20/3 31/77/3 9/17/3
f 21/46/4 39/94/4 40/96/4
f 44/102/1 46/107/1 43/100/1
f 47/109/4 24/55/4 23/51/4
f 48/113/2 50/117/2 47/110/2
f 43/99/4 40/97/4 39/93/4
f 46/108/4 50/118/4 49/115/4
f 17/38/5 21/47/5 23/53/5
f 24/56/6 22/50/6 20/44/6
f 54/126/5 55/127/5 56/130/5
f 52/124/2 49/116/2 48/113/2
f 56/131/1 43/100/1 46/107/1
f 51/121/4 46/108/4 49/115/4
f 60/140/6 61/141/6 62/144/6
f 58/138/1 45/106/1 44/102/1
f 62/145/2 47/110/2 50/117/2
f 57/135/4 50/118/4 45/105/4
f 48/114/3 55/129/3 52/122/3
f 44/104/3 61/143/3 58/136/3
f 25/59/6 28/68/6 26/60/6
f 3/5/1 7/14/1 8/15/1
f 5/9/2 1/2/2 2/3/2
f 9/17/3 14/30/3 13/25/3
f 9/18/1 12/23/1 16/34/1
f 10/19/2 13/26/2 15/32/2
f 16/35/4 12/24/4 11/21/4
f 12/24/4 35/87/4 34/84/4
f 7/13/4 3/6/4 1/1/4
f 6/11/2 30/72/2 29/69/2
f 6/12/3 2/4/3 4/7/3
f 2/4/3 26/61/3 28/66/3
f 19/41/1 23/52/1 24/54/1
f 17/37/2 18/39/2 22/48/2
f 16/36/5 15/33/5 13/27/5
f 4/8/1 28/67/1 27/63/1
f 3/6/4 27/64/4 25/57/4
f 1/2/2 25/58/2 26/62/2
f 35/88/5 30/73/5 33/81/5
f 29/70/5 30/73/5 35/88/5
f 29/70/5 35/88/5 31/75/5
f 34/85/5 33/81/5 36/90/5
f 29/70/5 31/75/5 32/78/5
f 32/78/5 34/85/5 36/90/5
f 9/18/1 31/76/1 35/89/1
f 5/10/4 29/71/4 36/91/4
f 8/16/3 33/82/3 30/74/3
f 7/14/1 36/92/1 33/83/1
f 11/22/2 34/86/2 32/79/2
f 10/20/3 32/80/3 31/77/3
f 21/46/4 22/49/4 39/94/4
f 44/102/1 45/106/1 46/107/1
f 47/109/4 48/112/4 24/55/4
f 48/113/2 49/116/2 50/117/2
f 43/99/4 44/103/4 40/97/4
f 46/108/4 45/105/4 50/118/4
f 23/53/5 19/42/5 17/38/5
f 21/47/4 40/98/4 23/53/4
f 24/56/4 39/95/4 22/50/4
f 22/50/6 18/40/6 20/44/6
f 56/130/5 51/119/5 53/125/5
f 51/119/5 52/123/5 53/125/5
f 53/125/5 54/126/5 56/130/5
f 52/124/2 51/120/2 49/116/2
f 56/131/1 55/128/1 43/100/1
f 51/121/4 56/132/4 46/108/4
f 62/144/6 57/133/6 59/139/6
f 57/133/6 58/137/6 59/139/6
f 59/139/6 60/140/6 62/144/6
f 58/138/1 57/134/1 45/106/1
f 62/145/2 61/142/2 47/110/2
f 57/135/4 62/146/4 50/118/4
f 48/114/3 43/101/3 55/129/3
f 44/104/3 47/111/3 61/143/3
f 25/59/6 27/65/6 28/68/6
l 41 37
l 38 42
