# Blender 3.3.1
# www.blender.org
mtllib card.mtl
o Card1.001
v -0.692060 0.502126 1.163897
v -0.770398 0.502126 1.085559
v -0.731229 0.502126 1.153402
v -0.759902 0.502126 1.124728
v 0.770398 0.502126 1.085559
v 0.692060 0.502126 1.163897
v 0.759902 0.502126 1.124728
v 0.731229 0.502126 1.153402
v -0.770398 0.502126 -0.972045
v -0.692060 0.502126 -1.050383
v -0.759902 0.502126 -1.011214
v -0.731229 0.502126 -1.039887
v 0.692060 0.502126 -1.050383
v 0.770398 0.502126 -0.972045
v 0.731229 0.502126 -1.039887
v 0.759902 0.502126 -1.011214
v -0.770398 -0.018797 1.085559
v -0.692060 -0.018797 1.163897
v -0.759902 -0.018797 1.124728
v -0.731229 -0.018797 1.153402
v 0.692060 -0.018797 1.163897
v 0.770398 -0.018797 1.085559
v 0.731229 -0.018797 1.153402
v 0.759902 -0.018797 1.124728
v -0.692060 -0.018797 -1.050383
v -0.770398 -0.018797 -0.972045
v -0.731229 -0.018797 -1.039887
v -0.759902 -0.018797 -1.011214
v 0.770398 -0.018797 -0.972045
v 0.692060 -0.018797 -1.050383
v 0.759902 -0.018797 -1.011214
v 0.731229 -0.018797 -1.039887
v -0.770398 0.241664 1.085559
v -0.692060 0.241664 1.163897
v 0.692060 0.241664 1.163897
v 0.770398 0.241664 1.085559
v -0.692060 0.241665 -1.050383
v 0.770398 0.241665 -0.972045
v 0.692060 0.241665 -1.050383
v 0.759902 0.241664 1.124728
v 0.731229 0.241664 1.153402
v -0.770398 0.241665 -0.972045
v 0.731229 0.241665 -1.039887
v -0.731229 0.241665 -1.039887
v 0.759902 0.241665 -1.011214
v -0.759902 0.241665 -1.011214
v -0.731229 0.241664 1.153402
v -0.759902 0.241664 1.124728
v -0.770398 0.371895 1.085559
v -0.692060 0.371895 1.163897
v 0.692060 0.371895 1.163897
v 0.770398 0.371895 1.085559
v -0.692060 0.371895 -1.050383
v 0.770398 0.371895 -0.972045
v 0.692060 0.371895 -1.050383
v 0.759902 0.371895 1.124728
v 0.731229 0.371895 1.153402
v -0.770398 0.371895 -0.972045
v 0.731229 0.371895 -1.039887
v -0.731229 0.371895 -1.039887
v 0.759902 0.371895 -1.011214
v -0.759902 0.371895 -1.011214
v -0.731229 0.371895 1.153402
v -0.759902 0.371895 1.124728
v -0.770398 0.111434 1.085559
v -0.692060 0.111434 1.163897
v 0.692060 0.111434 1.163897
v 0.770398 0.111434 1.085559
v -0.692060 0.111434 -1.050383
v 0.770398 0.111434 -0.972045
v 0.692060 0.111434 -1.050383
v 0.759902 0.111434 1.124728
v 0.731229 0.111434 1.153402
v -0.770398 0.111434 -0.972045
v 0.731229 0.111434 -1.039887
v -0.731229 0.111434 -1.039887
v 0.759902 0.111434 -1.011214
v -0.759902 0.111434 -1.011214
v -0.731229 0.111434 1.153402
v -0.759902 0.111434 1.124728
v -0.770398 0.176549 1.085559
v -0.692060 0.176549 1.163897
v 0.692060 0.176549 1.163897
v 0.770398 0.176549 1.085559
v -0.692060 0.176549 -1.050383
v 0.770398 0.176549 -0.972045
v 0.692060 0.176549 -1.050383
v 0.759902 0.176549 1.124728
v 0.731229 0.176549 1.153402
v -0.770398 0.176549 -0.972045
v 0.731229 0.176549 -1.039887
v -0.731229 0.176549 -1.039887
v 0.759902 0.176549 -1.011214
v -0.759902 0.176549 -1.011214
v -0.731229 0.176549 1.153402
v -0.759902 0.176549 1.124728
v -0.770398 0.306780 1.085559
v -0.692060 0.306780 1.163897
v 0.692060 0.306780 1.163897
v 0.770398 0.306780 1.085559
v -0.692060 0.306780 -1.050383
v 0.770398 0.306780 -0.972045
v 0.692060 0.306780 -1.050383
v 0.759902 0.306780 1.124728
v 0.731229 0.306780 1.153402
v -0.770398 0.306780 -0.972045
v 0.731229 0.306780 -1.039887
v -0.731229 0.306780 -1.039887
v 0.759902 0.306780 -1.011214
v -0.759902 0.306780 -1.011214
v -0.731229 0.306780 1.153402
v -0.759902 0.306780 1.124728
v -0.770398 0.437010 1.085559
v -0.692060 0.437010 1.163897
v 0.692060 0.437010 1.163897
v 0.770398 0.437010 1.085559
v -0.692060 0.437011 -1.050383
v 0.770398 0.437011 -0.972045
v 0.692060 0.437011 -1.050383
v 0.759902 0.437010 1.124728
v 0.731229 0.437010 1.153402
v -0.770398 0.437011 -0.972045
v 0.731229 0.437011 -1.039887
v -0.731229 0.437011 -1.039887
v 0.759902 0.437011 -1.011214
v -0.759902 0.437011 -1.011214
v -0.731229 0.437010 1.153402
v -0.759902 0.437010 1.124728
v -0.770398 0.046318 1.085559
v -0.692060 0.046318 1.163897
v 0.692060 0.046318 1.163897
v 0.770398 0.046318 1.085559
v -0.692060 0.046319 -1.050383
v 0.770398 0.046319 -0.972045
v 0.692060 0.046319 -1.050383
v 0.759902 0.046318 1.124728
v 0.731229 0.046318 1.153402
v -0.770398 0.046319 -0.972045
v 0.731229 0.046319 -1.039887
v -0.731229 0.046319 -1.039887
v 0.759902 0.046319 -1.011214
v -0.759902 0.046319 -1.011214
v -0.731229 0.046318 1.153402
v -0.759902 0.046318 1.124728
v 0.089748 0.523127 1.333630
v -0.011271 0.523127 1.288145
v 0.049402 0.523127 1.337700
v 0.012427 0.523127 1.321050
v 1.429493 0.523127 0.742018
v 1.384007 0.523127 0.843037
v 1.433561 0.523127 0.782364
v 1.416913 0.523127 0.819340
v -0.740577 0.523127 -0.635874
v -0.695091 0.523127 -0.736892
v -0.744645 0.523127 -0.676220
v -0.727997 0.523127 -0.713194
v 0.599168 0.523127 -1.227486
v 0.700186 0.523127 -1.182000
v 0.639514 0.523127 -1.231555
v 0.676489 0.523127 -1.214906
v -0.011271 0.504330 1.288145
v 0.089748 0.504330 1.333630
v 0.012427 0.504330 1.321050
v 0.049402 0.504330 1.337700
v 1.384007 0.504330 0.843037
v 1.429493 0.504330 0.742018
v 1.416913 0.504330 0.819340
v 1.433561 0.504330 0.782364
v -0.695091 0.504330 -0.736892
v -0.740577 0.504330 -0.635874
v -0.727997 0.504330 -0.713194
v -0.744645 0.504330 -0.676220
v 0.700186 0.504330 -1.182000
v 0.599168 0.504330 -1.227486
v 0.676489 0.504330 -1.214906
v 0.639514 0.504330 -1.231555
v 0.089748 0.541336 1.333630
v -0.011271 0.541336 1.288145
v 0.049402 0.541336 1.337700
v 0.012427 0.541336 1.321050
v 1.429493 0.541336 0.742018
v 1.384007 0.541336 0.843037
v 1.433561 0.541336 0.782364
v 1.416913 0.541336 0.819340
v -0.740577 0.541337 -0.635874
v -0.695091 0.541337 -0.736892
v -0.744645 0.541337 -0.676220
v -0.727997 0.541337 -0.713194
v 0.599168 0.541337 -1.227486
v 0.700186 0.541337 -1.182000
v 0.639514 0.541337 -1.231555
v 0.676489 0.541337 -1.214906
v -0.011271 0.522539 1.288145
v 0.089748 0.522539 1.333630
v 0.012427 0.522539 1.321050
v 0.049402 0.522539 1.337700
v 1.384007 0.522539 0.843037
v 1.429493 0.522539 0.742018
v 1.416913 0.522539 0.819340
v 1.433561 0.522539 0.782364
v -0.695091 0.522540 -0.736892
v -0.740577 0.522540 -0.635874
v -0.727997 0.522540 -0.713194
v -0.744645 0.522540 -0.676220
v 0.700186 0.522540 -1.182000
v 0.599168 0.522540 -1.227486
v 0.676489 0.522540 -1.214906
v 0.639514 0.522540 -1.231555
vn -0.0000 -0.0000 -1.0000
vn -1.0000 -0.0000 -0.0000
vn -0.0000 -0.0000 1.0000
vn -0.0000 -1.0000 -0.0000
vn -0.0000 1.0000 -0.0000
vn -0.9659 -0.0000 -0.2588
vn -0.7071 -0.0000 -0.7071
vn -0.2588 -0.0000 -0.9659
vn 0.9659 -0.0000 -0.2588
vn 0.7071 -0.0000 -0.7071
vn 0.2588 -0.0000 -0.9659
vn -0.2588 -0.0000 0.9659
vn -0.7071 -0.0000 0.7071
vn -0.9659 -0.0000 0.2588
vn 0.2588 -0.0000 0.9659
vn 0.7071 -0.0000 0.7071
vn 0.9659 -0.0000 0.2588
vn 1.0000 -0.0000 -0.0000
vn -0.3544 -0.0000 -0.9351
vn -0.9351 -0.0000 0.3544
vn 0.3544 -0.0000 0.9351
vn -0.9950 -0.0000 0.1003
vn -0.9118 -0.0000 -0.4106
vn -0.5844 -0.0000 -0.8115
vn 0.8115 -0.0000 -0.5844
vn 0.4106 -0.0000 -0.9118
vn -0.1004 -0.0000 -0.9950
vn 0.1003 -0.0000 0.9950
vn -0.4106 -0.0000 0.9118
vn -0.8115 -0.0000 0.5844
vn 0.5844 -0.0000 0.8115
vn 0.9118 -0.0000 0.4106
vn 0.9950 -0.0000 -0.1003
vn 0.9351 -0.0000 -0.3544
vt 0.013830 0.390923
vt 0.908033 0.509751
vt 0.000000 0.377093
vt 0.908033 0.757386
vt 0.006915 0.389070
vt 0.908033 0.516891
vt 0.001853 0.384008
vt 0.908033 0.764306
vt 0.908033 0.522812
vt 0.272022 0.377093
vt 0.816066 0.375259
vt 0.258192 0.390923
vt 0.908033 0.269714
vt 0.270169 0.384008
vt 0.816066 0.382168
vt 0.265107 0.389070
vt 0.908033 0.263268
vt 0.816066 0.387215
vt 0.000000 0.013830
vt 0.908033 0.394125
vt 0.013830 0.000000
vt 1.000000 0.251270
vt 0.001853 0.006915
vt 1.000000 0.263268
vt 0.908033 0.387215
vt 0.006915 0.001853
vt 1.000000 0.258190
vt 0.258192 0.000000
vt 1.000000 0.006909
vt 0.272022 0.013830
vt 0.816066 0.011998
vt 0.265107 0.001853
vt 0.816066 0.000000
vt 1.000000 0.000000
vt 0.270169 0.006915
vt 0.816066 0.005077
vt 0.544044 0.377093
vt 0.816066 0.757386
vt 0.530214 0.390923
vt 1.000000 0.509751
vt 0.542191 0.384008
vt 1.000000 0.522812
vt 0.816066 0.764306
vt 0.537129 0.389070
vt 1.000000 0.516891
vt 0.285852 0.390923
vt 1.000000 0.269714
vt 0.272022 0.377093
vt 0.908033 0.375259
vt 0.278937 0.389070
vt 0.908033 0.387215
vt 1.000000 0.263268
vt 0.273875 0.384008
vt 0.908033 0.382169
vt 0.530214 0.000000
vt 0.908033 0.251270
vt 0.544044 0.013830
vt 0.816066 0.394125
vt 0.537129 0.001853
vt 0.908033 0.258190
vt 0.542191 0.006915
vt 0.816066 0.387215
vt 0.908033 0.263268
vt 0.272022 0.013830
vt 0.908033 0.011998
vt 0.285852 0.000000
vt 0.908033 0.006909
vt 0.273875 0.006915
vt 0.908033 0.005077
vt 0.278937 0.001853
vt 0.908033 0.000000
vt 0.862049 0.757386
vt 0.954016 0.509751
vt 0.954016 0.269714
vt 0.862049 0.375259
vt 0.954017 0.251270
vt 0.862049 0.011998
vt 0.954017 0.006909
vt 0.862049 0.382169
vt 0.862049 0.387215
vt 0.954016 0.263268
vt 0.862049 0.394125
vt 0.954017 0.000000
vt 0.862049 0.000000
vt 0.954017 0.258190
vt 0.862049 0.005077
vt 0.954017 0.263268
vt 0.862049 0.387215
vt 0.954016 0.516891
vt 0.862049 0.764306
vt 0.954016 0.522812
vt 0.885041 0.757386
vt 0.931025 0.509751
vt 0.931025 0.269714
vt 0.839058 0.375259
vt 0.977008 0.251270
vt 0.839058 0.011998
vt 0.977008 0.006909
vt 0.839058 0.382169
vt 0.839058 0.387215
vt 0.931025 0.263268
vt 0.885041 0.394125
vt 0.977008 0.000000
vt 0.839058 0.000000
vt 0.977008 0.258190
vt 0.839058 0.005077
vt 0.885041 0.387215
vt 0.977008 0.263268
vt 0.931025 0.516891
vt 0.931025 0.522812
vt 0.885041 0.764306
vt 0.839058 0.757386
vt 0.977008 0.509751
vt 0.977008 0.269714
vt 0.885041 0.375259
vt 0.931025 0.251270
vt 0.885041 0.011998
vt 0.931025 0.006909
vt 0.885041 0.382169
vt 0.977008 0.263268
vt 0.885041 0.387215
vt 0.839058 0.394125
vt 0.885041 0.000000
vt 0.931025 0.000000
vt 0.931025 0.258190
vt 0.885041 0.005077
vt 0.931025 0.263268
vt 0.839058 0.387215
vt 0.977008 0.516891
vt 0.839058 0.764306
vt 0.977008 0.522812
vt 0.850554 0.757386
vt 0.965512 0.509751
vt 0.965512 0.269714
vt 0.873545 0.375259
vt 0.942521 0.251270
vt 0.873545 0.011998
vt 0.942521 0.006909
vt 0.873545 0.382169
vt 0.873545 0.387215
vt 0.965512 0.263268
vt 0.850554 0.394125
vt 0.942521 0.000000
vt 0.873545 0.000000
vt 0.942521 0.258190
vt 0.873545 0.005077
vt 0.942521 0.263268
vt 0.850554 0.387215
vt 0.965512 0.516891
vt 0.850554 0.764306
vt 0.965512 0.522812
vt 0.873545 0.757386
vt 0.942520 0.509751
vt 0.942520 0.269714
vt 0.850554 0.375259
vt 0.965512 0.251270
vt 0.850554 0.011998
vt 0.965512 0.006909
vt 0.850554 0.382169
vt 0.850554 0.387215
vt 0.942520 0.263268
vt 0.873545 0.394125
vt 0.965512 0.000000
vt 0.850554 0.000000
vt 0.965512 0.258190
vt 0.850554 0.005077
vt 0.965512 0.263268
vt 0.873545 0.387215
vt 0.942520 0.516891
vt 0.873545 0.764306
vt 0.942520 0.522812
vt 0.896537 0.757386
vt 0.919529 0.509751
vt 0.919529 0.269714
vt 0.827562 0.375259
vt 0.988504 0.251270
vt 0.827562 0.011998
vt 0.988504 0.006909
vt 0.827562 0.382169
vt 0.919529 0.263268
vt 0.827562 0.387215
vt 0.896537 0.394125
vt 0.827562 0.000000
vt 0.988504 0.000000
vt 0.988504 0.258190
vt 0.827562 0.005077
vt 0.896537 0.387215
vt 0.988504 0.263268
vt 0.919529 0.516891
vt 0.919529 0.522812
vt 0.896537 0.764306
vt 0.827562 0.757386
vt 0.988504 0.509751
vt 0.988504 0.269714
vt 0.896537 0.375259
vt 0.919529 0.251270
vt 0.896537 0.011998
vt 0.919529 0.006909
vt 0.896537 0.382169
vt 0.988504 0.263268
vt 0.896537 0.387215
vt 0.827562 0.394125
vt 0.896537 0.000000
vt 0.919529 0.000000
vt 0.919529 0.258190
vt 0.896537 0.005077
vt 0.827562 0.387215
vt 0.919529 0.263268
vt 0.988504 0.516891
vt 0.988504 0.522812
vt 0.827562 0.764306
vt 0.258192 0.390923
vt 0.927944 0.735968
vt 0.272022 0.404753
vt 0.911352 0.876523
vt 0.265107 0.392776
vt 0.927944 0.742830
vt 0.270169 0.397838
vt 0.911352 0.882345
vt 0.927944 0.749793
vt 0.000000 0.404753
vt 0.917989 0.868701
vt 0.013830 0.390923
vt 0.927944 0.527735
vt 0.001853 0.397838
vt 0.917989 0.875827
vt 0.006915 0.392776
vt 0.917989 0.882345
vt 0.927944 0.522812
vt 0.272022 0.768016
vt 0.911352 0.536456
vt 0.258192 0.781846
vt 0.924626 0.528634
vt 0.270169 0.774931
vt 0.911352 0.529330
vt 0.265107 0.779993
vt 0.924626 0.522812
vt 0.911352 0.522812
vt 0.013830 0.781846
vt 0.924626 0.757392
vt 0.000000 0.768016
vt 0.917989 0.528634
vt 0.006915 0.779993
vt 0.924626 0.764517
vt 0.001853 0.774931
vt 0.924626 0.771036
vt 0.917989 0.522812
vt 0.544044 0.404753
vt 0.908033 0.876523
vt 0.557874 0.390923
vt 0.931263 0.735968
vt 0.545897 0.397838
vt 0.908033 0.882345
vt 0.931263 0.749793
vt 0.550959 0.392776
vt 0.931263 0.742830
vt 0.802236 0.390923
vt 0.931263 0.527735
vt 0.816066 0.404753
vt 0.921307 0.868701
vt 0.809151 0.392776
vt 0.921307 0.882345
vt 0.931263 0.522812
vt 0.814213 0.397838
vt 0.921307 0.875827
vt 0.557874 0.781846
vt 0.927944 0.528634
vt 0.544044 0.768016
vt 0.908033 0.536456
vt 0.550959 0.779993
vt 0.927944 0.522812
vt 0.908033 0.522812
vt 0.545897 0.774931
vt 0.908033 0.529330
vt 0.816066 0.768016
vt 0.921307 0.528634
vt 0.802236 0.781846
vt 0.927944 0.757392
vt 0.814213 0.774931
vt 0.927944 0.771036
vt 0.921307 0.522812
vt 0.809151 0.779993
vt 0.927944 0.764517
vt 0.530214 0.390923
vt 0.931263 0.735967
vt 0.544044 0.404753
vt 0.914670 0.876523
vt 0.537129 0.392776
vt 0.931263 0.742830
vt 0.542191 0.397838
vt 0.914670 0.882345
vt 0.931263 0.749793
vt 0.272022 0.404753
vt 0.914670 0.868701
vt 0.285852 0.390923
vt 0.931263 0.527735
vt 0.273875 0.397838
vt 0.914670 0.875827
vt 0.278937 0.392776
vt 0.914670 0.882345
vt 0.931263 0.522812
vt 0.544044 0.768016
vt 0.914670 0.536456
vt 0.530214 0.781846
vt 0.924626 0.765214
vt 0.542191 0.774931
vt 0.914670 0.529330
vt 0.537129 0.779993
vt 0.924626 0.771036
vt 0.914670 0.522812
vt 0.285852 0.781846
vt 0.924626 0.536456
vt 0.272022 0.768016
vt 0.914670 0.528634
vt 0.278937 0.779993
vt 0.924626 0.529330
vt 0.273875 0.774931
vt 0.924626 0.522812
vt 0.914670 0.522812
vt 0.544044 0.013830
vt 0.911352 0.876523
vt 0.557874 0.000000
vt 0.934581 0.735967
vt 0.545897 0.006915
vt 0.911352 0.882345
vt 0.934581 0.749793
vt 0.550959 0.001853
vt 0.934581 0.742830
vt 0.802236 0.000000
vt 0.934581 0.527735
vt 0.816066 0.013830
vt 0.917989 0.868701
vt 0.809151 0.001853
vt 0.917989 0.882345
vt 0.934581 0.522812
vt 0.814213 0.006915
vt 0.917989 0.875827
vt 0.557874 0.390923
vt 0.921307 0.765214
vt 0.544044 0.377093
vt 0.911352 0.536456
vt 0.550959 0.389070
vt 0.921307 0.771036
vt 0.911352 0.522812
vt 0.545897 0.384008
vt 0.911352 0.529330
vt 0.816066 0.377093
vt 0.917989 0.528634
vt 0.802236 0.390923
vt 0.921307 0.536456
vt 0.814213 0.384008
vt 0.921307 0.522812
vt 0.917989 0.522812
vt 0.809151 0.389070
vt 0.921307 0.529330
s 0
usemtl マテリアル
f 130/193/1 131/194/1 21/47/1 18/40/1
f 132/195/2 134/197/2 29/65/2 22/49/2
f 135/198/3 133/196/3 25/56/3 30/67/3
f 1/1/4 3/5/4 4/7/4 2/3/4 9/19/4 11/23/4 12/26/4 10/21/4 13/28/4 15/32/4 16/35/4 14/30/4 5/10/4 7/14/4 8/16/4 6/12/4
f 17/37/5 19/41/5 20/44/5 18/39/5 21/46/5 23/50/5 24/53/5 22/48/5 29/64/5 31/68/5 32/70/5 30/66/5 25/55/5 27/59/5 28/61/5 26/57/5
f 132/195/6 22/49/6 24/54/6 136/199/6
f 136/199/7 24/54/7 23/51/7 137/201/7
f 137/200/8 23/52/8 21/47/8 131/194/8
f 113/172/9 2/4/9 4/8/9 128/191/9
f 128/190/10 4/9/10 3/6/10 127/189/10
f 127/189/11 3/6/11 1/2/11 114/173/11
f 135/198/12 30/67/12 32/71/12 139/204/12
f 139/203/13 32/71/13 31/69/13 141/206/13
f 141/206/14 31/69/14 29/65/14 134/197/14
f 117/176/15 10/22/15 12/27/15 124/185/15
f 124/185/16 12/27/16 11/24/16 126/188/16
f 126/187/17 11/25/17 9/20/17 122/182/17
f 138/202/18 129/192/18 17/38/18 26/58/18
f 106/162/18 97/152/18 33/72/18 42/82/18
f 94/148/17 46/88/17 42/82/17 90/142/17
f 92/145/16 44/85/16 46/87/16 94/147/16
f 85/136/15 37/76/15 44/85/15 92/145/15
f 109/166/14 45/86/14 38/77/14 102/157/14
f 107/164/13 43/84/13 45/86/13 109/166/13
f 103/158/12 39/78/12 43/83/12 107/163/12
f 95/149/11 47/89/11 34/73/11 82/133/11
f 96/151/10 48/91/10 47/89/10 95/149/10
f 81/132/9 33/72/9 48/90/9 96/150/9
f 105/161/8 41/81/8 35/74/8 99/154/8
f 104/159/7 40/79/7 41/80/7 105/160/7
f 100/155/6 36/75/6 40/79/6 104/159/6
f 103/158/3 101/156/3 37/76/3 39/78/3
f 100/155/2 102/157/2 38/77/2 36/75/2
f 98/153/1 99/154/1 35/74/1 34/73/1
f 114/173/1 115/174/1 51/94/1 50/93/1
f 116/175/2 118/177/2 54/97/2 52/95/2
f 119/178/3 117/176/3 53/96/3 55/98/3
f 116/175/6 52/95/6 56/99/6 120/179/6
f 120/179/7 56/99/7 57/100/7 121/181/7
f 121/180/8 57/101/8 51/94/8 115/174/8
f 119/178/12 55/98/12 59/103/12 123/184/12
f 123/183/13 59/104/13 61/106/13 125/186/13
f 125/186/14 61/106/14 54/97/14 118/177/14
f 122/182/18 113/172/18 49/92/18 58/102/18
f 110/168/17 62/107/17 58/102/17 106/162/17
f 108/165/16 60/105/16 62/108/16 110/167/16
f 101/156/15 53/96/15 60/105/15 108/165/15
f 111/169/11 63/109/11 50/93/11 98/153/11
f 112/171/10 64/110/10 63/109/10 111/169/10
f 97/152/9 49/92/9 64/111/9 112/170/9
f 129/192/9 65/112/9 80/130/9 144/211/9
f 144/210/10 80/131/10 79/129/10 143/209/10
f 143/209/11 79/129/11 66/113/11 130/193/11
f 133/196/15 69/116/15 76/125/15 140/205/15
f 140/205/16 76/125/16 78/127/16 142/208/16
f 142/207/17 78/128/17 74/122/17 138/202/17
f 90/142/18 81/132/18 65/112/18 74/122/18
f 93/146/14 77/126/14 70/117/14 86/137/14
f 91/144/13 75/123/13 77/126/13 93/146/13
f 87/138/12 71/118/12 75/124/12 91/143/12
f 89/141/8 73/120/8 67/114/8 83/134/8
f 88/139/7 72/119/7 73/121/7 89/140/7
f 84/135/6 68/115/6 72/119/6 88/139/6
f 87/138/3 85/136/3 69/116/3 71/118/3
f 84/135/2 86/137/2 70/117/2 68/115/2
f 82/133/1 83/134/1 67/114/1 66/113/1
f 34/73/1 35/74/1 83/134/1 82/133/1
f 36/75/2 38/77/2 86/137/2 84/135/2
f 39/78/3 37/76/3 85/136/3 87/138/3
f 36/75/6 84/135/6 88/139/6 40/79/6
f 40/79/7 88/139/7 89/140/7 41/80/7
f 41/81/8 89/141/8 83/134/8 35/74/8
f 39/78/12 87/138/12 91/143/12 43/83/12
f 43/84/13 91/144/13 93/146/13 45/86/13
f 45/86/14 93/146/14 86/137/14 38/77/14
f 42/82/18 33/72/18 81/132/18 90/142/18
f 65/112/9 81/132/9 96/150/9 80/130/9
f 80/131/10 96/151/10 95/149/10 79/129/10
f 79/129/11 95/149/11 82/133/11 66/113/11
f 69/116/15 85/136/15 92/145/15 76/125/15
f 76/125/16 92/145/16 94/147/16 78/127/16
f 78/128/17 94/148/17 90/142/17 74/122/17
f 33/72/9 97/152/9 112/170/9 48/90/9
f 48/91/10 112/171/10 111/169/10 47/89/10
f 47/89/11 111/169/11 98/153/11 34/73/11
f 37/76/15 101/156/15 108/165/15 44/85/15
f 44/85/16 108/165/16 110/167/16 46/87/16
f 46/88/17 110/168/17 106/162/17 42/82/17
f 50/93/1 51/94/1 99/154/1 98/153/1
f 52/95/2 54/97/2 102/157/2 100/155/2
f 55/98/3 53/96/3 101/156/3 103/158/3
f 52/95/6 100/155/6 104/159/6 56/99/6
f 56/99/7 104/159/7 105/160/7 57/100/7
f 57/101/8 105/161/8 99/154/8 51/94/8
f 55/98/12 103/158/12 107/163/12 59/103/12
f 59/104/13 107/164/13 109/166/13 61/106/13
f 61/106/14 109/166/14 102/157/14 54/97/14
f 58/102/18 49/92/18 97/152/18 106/162/18
f 9/20/18 2/4/18 113/172/18 122/182/18
f 16/36/14 125/186/14 118/177/14 14/31/14
f 15/33/13 123/183/13 125/186/13 16/36/13
f 13/29/12 119/178/12 123/184/12 15/34/12
f 8/17/8 121/180/8 115/174/8 6/13/8
f 7/15/7 120/179/7 121/181/7 8/18/7
f 5/11/6 116/175/6 120/179/6 7/15/6
f 13/29/3 10/22/3 117/176/3 119/178/3
f 5/11/2 14/31/2 118/177/2 116/175/2
f 1/2/1 6/13/1 115/174/1 114/173/1
f 62/107/17 126/187/17 122/182/17 58/102/17
f 60/105/16 124/185/16 126/188/16 62/108/16
f 53/96/15 117/176/15 124/185/15 60/105/15
f 63/109/11 127/189/11 114/173/11 50/93/11
f 64/110/10 128/190/10 127/189/10 63/109/10
f 49/92/9 113/172/9 128/191/9 64/111/9
f 28/62/17 142/207/17 138/202/17 26/58/17
f 27/60/16 140/205/16 142/208/16 28/63/16
f 25/56/15 133/196/15 140/205/15 27/60/15
f 20/45/11 143/209/11 130/193/11 18/40/11
f 19/42/10 144/210/10 143/209/10 20/45/10
f 17/38/9 129/192/9 144/211/9 19/43/9
f 74/122/18 65/112/18 129/192/18 138/202/18
f 77/126/14 141/206/14 134/197/14 70/117/14
f 75/123/13 139/203/13 141/206/13 77/126/13
f 71/118/12 135/198/12 139/204/12 75/124/12
f 73/120/8 137/200/8 131/194/8 67/114/8
f 72/119/7 136/199/7 137/201/7 73/121/7
f 68/115/6 132/195/6 136/199/6 72/119/6
f 71/118/3 69/116/3 133/196/3 135/198/3
f 68/115/2 70/117/2 134/197/2 132/195/2
f 66/113/1 67/114/1 131/194/1 130/193/1
f 145/213/19 150/224/19 165/258/19 162/251/19
f 149/222/20 158/242/20 173/276/20 166/260/20
f 157/240/21 154/233/21 169/267/21 174/278/21
f 145/212/4 147/216/4 148/218/4 146/214/4 153/230/4 155/234/4 156/236/4 154/232/4 157/239/4 159/243/4 160/245/4 158/241/4 149/221/4 151/225/4 152/227/4 150/223/4
f 161/248/5 163/252/5 164/255/5 162/250/5 165/257/5 167/261/5 168/264/5 166/259/5 173/275/5 175/279/5 176/282/5 174/277/5 169/266/5 171/270/5 172/273/5 170/268/5
f 149/222/22 166/260/22 168/265/22 151/226/22
f 151/226/23 168/265/23 167/262/23 152/228/23
f 152/229/24 167/263/24 165/258/24 150/224/24
f 161/249/25 146/215/25 148/219/25 163/253/25
f 163/254/26 148/220/26 147/217/26 164/256/26
f 164/256/27 147/217/27 145/213/27 162/251/27
f 157/240/28 174/278/28 176/283/28 159/244/28
f 159/244/29 176/283/29 175/280/29 160/246/29
f 160/247/30 175/281/30 173/276/30 158/242/30
f 169/267/31 154/233/31 156/237/31 171/271/31
f 171/272/32 156/238/32 155/235/32 172/274/32
f 172/274/33 155/235/33 153/231/33 170/269/33
f 153/231/34 146/215/34 161/249/34 170/269/34
f 177/285/19 182/296/19 197/330/19 194/323/19
f 181/294/20 190/314/20 205/348/20 198/332/20
f 189/312/21 186/305/21 201/339/21 206/350/21
f 177/284/4 179/288/4 180/290/4 178/286/4 185/302/4 187/306/4 188/308/4 186/304/4 189/311/4 191/315/4 192/317/4 190/313/4 181/293/4 183/297/4 184/299/4 182/295/4
f 193/320/5 195/324/5 196/327/5 194/322/5 197/329/5 199/333/5 200/336/5 198/331/5 205/347/5 207/351/5 208/354/5 206/349/5 201/338/5 203/342/5 204/345/5 202/340/5
f 181/294/22 198/332/22 200/337/22 183/298/22
f 183/298/23 200/337/23 199/334/23 184/300/23
f 184/301/24 199/335/24 197/330/24 182/296/24
f 193/321/25 178/287/25 180/291/25 195/325/25
f 195/326/26 180/292/26 179/289/26 196/328/26
f 196/328/27 179/289/27 177/285/27 194/323/27
f 189/312/28 206/350/28 208/355/28 191/316/28
f 191/316/29 208/355/29 207/352/29 192/318/29
f 192/319/30 207/353/30 205/348/30 190/314/30
f 201/339/31 186/305/31 188/309/31 203/343/31
f 203/344/32 188/310/32 187/307/32 204/346/32
f 204/346/33 187/307/33 185/303/33 202/341/33
f 185/303/34 178/287/34 193/321/34 202/341/34
