# Blender 3.3.1
# www.blender.org
mtllib pencil.mtl
o Cylinder_Cylinder.001
v 0.366016 1.471829 1.198890
v 0.183007 1.471829 1.515867
v -0.183005 1.471829 1.515867
v -0.366014 1.471829 1.198890
v -0.183005 1.471829 0.881913
v 0.183007 1.471829 0.881913
v 0.099745 1.272763 1.198890
v 0.049873 1.272763 1.112511
v -0.049871 1.272763 1.112511
v -0.099743 1.272763 1.198890
v -0.049871 1.272763 1.285269
v 0.049873 1.272763 1.285269
v 0.000001 1.201165 1.198890
v 0.000001 1.201165 1.198890
v 0.000001 1.201165 1.198890
v 0.000001 1.201165 1.198890
v 0.000001 1.201165 1.198890
v 0.000001 1.201165 1.198890
v 0.094666 1.271937 1.198890
v -0.047330 1.271937 1.116909
v -0.047330 1.271937 1.280871
v 0.047332 1.271937 1.116909
v -0.094664 1.271937 1.198890
v 0.047332 1.271937 1.280871
v -0.183005 4.630031 0.881913
v 0.183007 4.630031 0.881913
v 0.366016 4.630031 1.198890
v 0.183007 4.630031 1.515867
v -0.183005 4.630031 1.515867
v -0.366014 4.630031 1.198890
v 0.366016 4.630031 1.198890
v 0.076655 4.630031 1.198890
v 0.038328 4.630031 1.265274
v 0.183007 4.630031 1.515867
v -0.038326 4.630031 1.265274
v -0.183005 4.630031 1.515867
v -0.076653 4.630031 1.198890
v -0.366014 4.630031 1.198890
v -0.183005 4.630031 0.881913
v -0.038326 4.630031 1.132506
v 0.038328 4.630031 1.132506
v 0.183007 4.630031 0.881913
vn 0.8660 -0.0000 0.5000
vn -0.0000 -0.0000 1.0000
vn -0.8660 -0.0000 0.5000
vn -0.8660 -0.0000 -0.5000
vn -0.0000 1.0000 -0.0000
vn -0.0000 -0.0000 -1.0000
vn 0.8660 -0.0000 -0.5000
vn -0.1598 -0.9828 -0.0923
vn 0.1598 -0.9828 0.0923
vn -0.0000 -0.9828 0.1845
vn 0.1598 -0.9828 -0.0923
vn -0.1598 -0.9828 0.0923
vn -0.0000 -0.9828 -0.1846
vn -0.5659 -0.7570 0.3267
vn 0.5659 -0.7570 0.3267
vn -0.0000 -0.7570 -0.6535
vn -0.0000 -0.7570 0.6535
vn -0.5659 -0.7570 -0.3267
vn 0.5659 -0.7570 -0.3267
vt 0.241890 0.940706
vt 0.831415 0.136868
vt 0.751904 0.103600
vt 0.276445 0.940706
vt 0.138223 0.059294
vt 0.891268 0.102313
vt 0.103667 0.059294
vt 0.822958 0.149206
vt 0.951120 0.136869
vt 0.034555 0.059294
vt 0.753846 0.149206
vt 0.951120 0.205980
vt 0.000000 0.059294
vt 0.138223 0.940706
vt 0.891267 0.240535
vt 0.172778 0.940706
vt 0.831415 0.205980
vt 0.682793 0.103600
vt 0.661030 0.422440
vt 0.874957 0.162007
vt 0.726765 0.162894
vt 0.661030 0.441274
vt 0.874957 0.180841
vt 0.707932 0.162894
vt 0.336297 0.087945
vt 0.677340 0.450691
vt 0.891268 0.190258
vt 0.352608 0.078528
vt 0.778985 0.089911
vt 0.907578 0.180841
vt 0.352608 0.059695
vt 0.797819 0.089911
vt 0.907578 0.162008
vt 0.677340 0.413024
vt 0.336297 0.050278
vt 0.891267 0.152591
vt 0.644300 0.639191
vt 0.617488 0.639191
vt 0.677340 0.431857
vt 0.617488 0.639191
vt 0.677340 0.431857
vt 0.617488 0.639191
vt 0.677340 0.431857
vt 0.626426 0.639191
vt 0.617488 0.639191
vt 0.677340 0.431857
vt 0.626426 0.639191
vt 0.617488 0.639191
vt 0.677340 0.431857
vt 0.644300 0.639191
vt 0.617488 0.639191
vt 0.677340 0.431857
vt 0.635363 0.660271
vt 0.661860 0.422920
vt 0.336297 0.086986
vt 0.677340 0.449732
vt 0.351777 0.060174
vt 0.692820 0.422920
vt 0.635363 0.660271
vt 0.653238 0.660271
vt 0.661861 0.440794
vt 0.351777 0.078049
vt 0.692820 0.440795
vt 0.617488 0.660271
vt 0.336297 0.051237
vt 0.677341 0.413983
vt 0.000000 1.000000
vt 0.138223 0.000000
vt 0.276445 0.276445
vt 0.172778 0.000000
vt 0.276445 0.276445
vt 0.241890 0.000000
vt 0.276445 0.276445
vt 0.276445 0.000000
vt 0.138222 1.000000
vt 0.276445 0.276445
vt 0.103667 1.000000
vt 0.276445 0.276445
vt 0.034555 1.000000
vt 0.276445 0.276445
vt 0.276445 0.276445
vt 0.723241 0.263593
vt 0.675923 0.236274
vt 0.742582 0.506008
vt 0.675923 0.221800
vt 0.742582 0.491534
vt 0.276445 0.276445
vt 0.723241 0.194481
vt 0.663389 0.214563
vt 0.730047 0.484297
vt 0.276445 0.276445
vt 0.663389 0.159925
vt 0.650854 0.221799
vt 0.717512 0.491533
vt 0.276445 0.276445
vt 0.603536 0.194480
vt 0.276445 0.276445
vt 0.603536 0.263592
vt 0.650854 0.236273
vt 0.717512 0.506007
vt 0.663389 0.243510
vt 0.730047 0.513244
vt 0.276445 0.276445
vt 0.663388 0.298148
s 0
usemtl マテリアル
f 1/1/1 27/72/1 28/74/1 2/4/1
f 2/5/2 28/75/2 29/77/2 3/7/2
f 3/7/3 29/77/3 30/79/3 4/10/3
f 4/10/4 30/79/4 25/67/4 5/13/4
f 36/91/5 38/95/5 30/80/5 29/78/5
f 5/14/6 25/68/6 26/70/6 6/16/6
f 6/16/7 26/70/7 27/72/7 1/1/7
f 10/28/8 9/25/8 20/55/8 23/62/8
f 7/19/9 12/34/9 24/66/9 19/54/9
f 12/35/10 11/31/10 21/57/10 24/65/10
f 8/22/11 7/19/11 19/54/11 22/61/11
f 11/31/12 10/28/12 23/62/12 21/57/12
f 9/26/13 8/22/13 22/61/13 20/56/13
f 3/8/14 4/11/14 10/29/14 11/32/14
f 1/2/15 2/6/15 12/36/15 7/20/15
f 5/15/16 6/17/16 8/23/16 9/27/16
f 2/6/17 3/9/17 11/33/17 12/36/17
f 4/12/18 5/15/18 9/27/18 10/30/18
f 6/18/19 1/3/19 7/21/19 8/24/19
f 22/60/19 19/53/19 13/37/19 18/50/19
f 13/38/5 14/40/5 15/42/5 16/45/5 17/48/5 18/51/5
f 23/63/18 20/56/18 17/49/18 16/46/18
f 24/66/17 21/58/17 15/43/17 14/41/17
f 20/56/16 22/61/16 18/52/16 17/49/16
f 19/54/15 24/66/15 14/41/15 13/39/15
f 21/59/14 23/64/14 16/47/14 15/44/14
f 39/97/5 42/103/5 26/71/5 25/69/5
f 38/95/5 39/97/5 25/69/5 30/80/5
f 31/81/5 34/87/5 28/76/5 27/73/5
f 34/87/5 36/91/5 29/78/5 28/76/5
f 42/103/5 31/81/5 27/73/5 26/71/5
f 42/104/5 39/98/5 40/99/5 41/101/5
f 34/88/5 31/82/5 32/83/5 33/85/5
f 36/92/5 34/88/5 33/85/5 35/89/5
f 38/96/5 36/92/5 35/89/5 37/93/5
f 39/98/5 38/96/5 37/93/5 40/99/5
f 31/82/5 42/104/5 41/101/5 32/83/5
f 41/102/5 40/100/5 37/94/5 35/90/5 33/86/5 32/84/5
