<svg version="1.1" id="Layer_1" xmlns="http://www.w3.org/2000/svg" xmlns:xlink="http://www.w3.org/1999/xlink" x="0px" y="0px"
	 width="100%" viewBox="0 0 150 150" enable-background="new 0 0 150 150" xml:space="preserve">
<path fill="#000000" opacity="1.000000" stroke="none" 
	d="
M89.000000,151.000000 
	C59.357655,151.000000 30.215305,151.000000 1.036479,151.000000 
	C1.036479,101.066032 1.036479,51.132030 1.036479,1.099015 
	C50.892124,1.099015 100.784508,1.099015 150.838440,1.099015 
	C150.838440,50.999580 150.838440,100.999741 150.838440,151.000000 
	C130.465729,151.000000 109.982864,151.000000 89.000000,151.000000 
M125.848854,57.991211 
	C128.786072,59.467323 131.652985,63.523380 134.888000,58.586720 
	C137.530090,54.554886 133.166824,53.371456 131.611893,50.959129 
	C128.572388,46.243660 124.499298,41.597759 123.409538,36.388466 
	C122.299515,31.082329 124.183823,25.123356 124.906662,19.469360 
	C125.402771,15.588866 124.387581,12.563079 120.498863,11.233405 
	C116.813293,9.973193 114.711647,12.155128 112.935944,15.081418 
	C111.375992,17.652151 109.834473,20.360445 107.731514,22.451559 
	C101.468315,28.679499 94.291000,34.217930 84.970612,31.702534 
	C79.641991,30.264441 74.837036,26.436047 70.156334,23.168171 
	C65.031097,19.589924 59.564556,21.206766 57.887558,27.175236 
	C56.719578,31.332113 55.566410,35.532242 53.903862,39.502522 
	C50.906208,46.661125 40.135090,53.394917 33.397938,53.063526 
	C29.634033,52.878387 25.797802,53.029324 22.067392,53.551739 
	C15.783851,54.431698 12.008848,61.335743 15.293626,65.616859 
	C17.017288,67.863342 19.179188,69.776360 20.875359,72.040596 
	C24.819359,77.305458 26.428890,88.683846 19.481043,93.933853 
	C15.209929,97.161247 11.289670,100.968651 7.743910,104.985283 
	C6.254774,106.672188 4.955878,110.106995 5.710976,111.782600 
	C6.592546,113.738846 9.737622,114.796432 12.055956,115.924751 
	C12.997974,116.383247 14.349312,115.994514 15.514338,116.001999 
	C25.807344,116.068092 34.635426,123.460365 37.170353,133.462143 
	C37.702721,135.562637 40.053604,138.470810 41.867596,138.708435 
	C45.421589,139.173996 47.171391,136.040009 46.922977,132.715103 
	C46.685360,129.534683 45.618561,126.416199 45.645729,123.028748 
	C49.048157,118.242523 51.691345,112.579559 56.004223,108.844681 
	C66.364609,99.872734 73.387596,87.457848 85.789970,80.623123 
	C93.500488,76.374001 100.851685,71.477966 108.453705,67.025177 
	C113.946426,63.807880 119.586464,60.842102 125.848854,57.991211 
z"/>
<path fill="#EF7B01" opacity="1.000000" stroke="none" 
	d="
M44.916214,123.270493 
	C45.618561,126.416199 46.685360,129.534683 46.922977,132.715103 
	C47.171391,136.040009 45.421589,139.173996 41.867596,138.708435 
	C40.053604,138.470810 37.702721,135.562637 37.170353,133.462143 
	C34.635426,123.460365 25.807344,116.068092 15.514338,116.001999 
	C14.349312,115.994514 12.997974,116.383247 12.055956,115.924751 
	C9.737622,114.796432 6.592546,113.738846 5.710976,111.782600 
	C4.955878,110.106995 6.254774,106.672188 7.743910,104.985283 
	C11.289670,100.968651 15.209929,97.161247 19.481043,93.933853 
	C26.428890,88.683846 24.819359,77.305458 20.875359,72.040596 
	C19.179188,69.776360 17.017288,67.863342 15.293626,65.616859 
	C12.008848,61.335743 15.783851,54.431698 22.067392,53.551739 
	C25.797802,53.029324 29.634033,52.878387 33.397938,53.063526 
	C40.135090,53.394917 50.906208,46.661125 53.903862,39.502522 
	C55.566410,35.532242 56.719578,31.332113 57.887558,27.175236 
	C59.564556,21.206766 65.031097,19.589924 70.156334,23.168171 
	C74.837036,26.436047 79.641991,30.264441 84.970612,31.702534 
	C94.291000,34.217930 101.468315,28.679499 107.731514,22.451559 
	C109.834473,20.360445 111.375992,17.652151 112.935944,15.081418 
	C114.711647,12.155128 116.813293,9.973193 120.498863,11.233405 
	C124.387581,12.563079 125.402771,15.588866 124.906662,19.469360 
	C124.183823,25.123356 122.299515,31.082329 123.409538,36.388466 
	C124.499298,41.597759 128.572388,46.243660 131.611893,50.959129 
	C133.166824,53.371456 137.530090,54.554886 134.888000,58.586720 
	C131.652985,63.523380 128.786072,59.467323 125.401810,57.558266 
	C119.046280,51.250134 114.098969,44.777607 112.450371,35.724785 
	C99.618782,47.201378 85.971039,49.916080 70.504761,41.716316 
	C63.443142,56.044243 52.982662,65.721893 36.190891,67.726776 
	C41.693375,82.982895 38.097771,95.634583 28.099102,104.951485 
	C34.101780,111.490250 39.508995,117.380371 44.916214,123.270493 
z"/>
<path fill="#FFE46E" opacity="1.000000" stroke="none" 
	d="
M45.280968,123.149620 
	C39.508995,117.380371 34.101780,111.490250 28.099102,104.951485 
	C38.097771,95.634583 41.693375,82.982895 36.190891,67.726776 
	C52.982662,65.721893 63.443142,56.044243 70.504761,41.716316 
	C85.971039,49.916080 99.618782,47.201378 112.450371,35.724785 
	C114.098969,44.777607 119.046280,51.250134 125.057785,57.444740 
	C119.586464,60.842102 113.946426,63.807880 108.453705,67.025177 
	C100.851685,71.477966 93.500488,76.374001 85.789970,80.623123 
	C73.387596,87.457848 66.364609,99.872734 56.004223,108.844681 
	C51.691345,112.579559 49.048157,118.242523 45.280968,123.149620 
z"/>
</svg>