# Blender 3.3.1
# www.blender.org
mtllib saku.mtl
o Cube
v -4.841219 -10.338508 1.016810
v -4.841219 8.581970 1.016813
v -4.122288 -10.338508 1.016810
v -4.122288 8.581970 1.016813
v -3.403358 -10.338508 1.016810
v -3.403358 8.581970 1.016813
v -4.841219 5.831209 14.542131
v -4.841219 -9.922941 14.542130
v -4.841219 7.204549 8.922305
v -4.841219 -9.887331 8.922302
v -4.841219 6.407006 12.509409
v -4.841219 -9.922941 12.509407
v -4.841219 -9.869686 5.363118
v -4.841219 7.745139 5.363121
v -4.122288 -10.338510 15.262842
v -4.122288 6.090058 15.262844
v -4.122288 7.852524 8.139829
v -4.122288 -10.338509 8.139826
v -4.122288 -10.338510 11.788692
v -4.122288 7.074170 11.788696
v -4.122288 8.336124 4.550047
v -4.122288 -10.338509 4.550044
v -4.841219 6.090058 15.262844
v -4.841219 -10.338510 15.262842
v -4.841219 6.760023 11.006220
v -4.841219 -9.887331 11.006218
v -4.841219 -10.338510 11.788692
v -4.841219 -9.869686 7.326752
v -4.841219 7.480606 7.326755
v -4.841219 7.074170 11.788696
v -4.841219 7.907602 3.711780
v -4.841219 7.852524 8.139829
v -4.841219 -10.338509 8.139826
v -4.841219 -9.855164 3.711777
v -4.841219 -10.338509 4.550044
v -4.841219 8.036788 1.855080
v -4.841219 -9.855163 1.855077
v -4.841219 8.336124 4.550047
v -3.403358 5.831209 14.542131
v -3.403358 -9.922941 14.542130
v -3.403358 7.204549 8.922305
v -3.403358 -9.887331 8.922302
v -3.403358 6.407006 12.509409
v -3.403358 -9.922941 12.509407
v -3.403358 -9.869686 5.363118
v -3.403358 7.745139 5.363121
v -3.403358 6.090058 15.262844
v -3.403358 -10.338510 15.262842
v -3.403358 6.760023 11.006220
v -3.403358 -9.887331 11.006218
v -3.403358 -10.338510 11.788692
v -3.403358 -9.869686 7.326752
v -3.403358 7.480606 7.326755
v -3.403358 7.074170 11.788696
v -3.403358 7.907602 3.711780
v -3.403358 7.852524 8.139829
v -3.403358 -10.338509 8.139826
v -3.403358 -9.855164 3.711777
v -3.403358 -10.338509 4.550044
v -3.403358 8.036788 1.855080
v -3.403358 -9.855163 1.855077
v -3.403358 8.336124 4.550047
v -4.122288 -12.201230 15.262842
v -4.841219 -12.201230 15.262842
v -3.403358 -12.201230 15.262842
v -4.841219 -10.338510 13.551626
v -3.403358 -10.338510 13.551626
v -4.841219 -10.338510 14.416204
v -3.403358 -10.338510 14.416204
v -4.841219 -12.201230 14.416203
v -4.122288 -12.201230 14.416203
v -3.403358 -12.201230 14.416203
v -4.841219 5.831214 -12.508509
v -4.841219 -9.922936 -12.508511
v -4.841219 7.204551 -6.888680
v -4.841219 -9.887329 -6.888683
v -4.841219 6.407010 -10.475784
v -4.841219 -9.922937 -10.475786
v -4.841219 -9.869685 -3.329499
v -4.841219 7.745141 -3.329496
v -4.122288 -10.338506 -13.229223
v -4.122288 6.090062 -13.229221
v -4.122288 7.852526 -6.106204
v -4.122288 -10.338507 -6.106207
v -4.122288 -10.338506 -9.755074
v -4.122288 7.074174 -9.755070
v -4.122288 8.336126 -2.516422
v -4.122288 -10.338507 -2.516425
v -4.841219 6.090062 -13.229221
v -4.841219 -10.338506 -13.229223
v -4.841219 6.760027 -8.972595
v -4.841219 -9.887329 -8.972597
v -4.841219 -10.338506 -9.755074
v -4.841219 -9.869684 -5.293133
v -4.841219 7.480608 -5.293130
v -4.841219 7.074174 -9.755070
v -4.841219 7.907602 -1.678154
v -4.841219 7.852526 -6.106204
v -4.841219 -10.338507 -6.106207
v -4.841219 -9.855162 -1.678157
v -4.841219 -10.338507 -2.516425
v -4.841219 8.036788 0.178545
v -4.841219 -9.855163 0.178542
v -4.841219 8.336126 -2.516422
v -3.403358 5.831214 -12.508509
v -3.403358 -9.922936 -12.508511
v -3.403358 7.204551 -6.888680
v -3.403358 -9.887329 -6.888683
v -3.403358 6.407010 -10.475784
v -3.403358 -9.922937 -10.475786
v -3.403358 -9.869685 -3.329499
v -3.403358 7.745141 -3.329496
v -3.403358 6.090062 -13.229221
v -3.403358 -10.338506 -13.229223
v -3.403358 6.760027 -8.972595
v -3.403358 -9.887329 -8.972597
v -3.403358 -10.338506 -9.755074
v -3.403358 -9.869684 -5.293133
v -3.403358 7.480608 -5.293130
v -3.403358 7.074174 -9.755070
v -3.403358 7.907602 -1.678154
v -3.403358 7.852526 -6.106204
v -3.403358 -10.338507 -6.106207
v -3.403358 -9.855162 -1.678157
v -3.403358 -10.338507 -2.516425
v -3.403358 8.036788 0.178545
v -3.403358 -9.855163 0.178542
v -3.403358 8.336126 -2.516422
v -4.122288 -12.201226 -13.229223
v -4.841219 -12.201226 -13.229223
v -3.403358 -12.201226 -13.229223
v -4.841219 -10.338506 -11.518007
v -3.403358 -10.338506 -11.518007
v -4.841219 -10.338506 -12.382584
v -3.403358 -10.338506 -12.382584
v -4.841219 -12.201226 -12.382586
v -4.122288 -12.201226 -12.382586
v -3.403358 -12.201226 -12.382586
vn -0.0000 0.9976 0.0694
vn -0.0000 0.9780 0.2086
vn -0.0000 0.9621 0.2725
vn -0.0000 0.9910 0.1335
vn -0.0000 -1.0000 -0.0000
vn -0.0000 -0.0000 1.0000
vn -1.0000 -0.0000 -0.0000
vn 1.0000 -0.0000 -0.0000
vn -0.0000 1.0000 -0.0000
vn -0.0000 -0.0000 -1.0000
vn -0.0000 -0.9976 -0.0694
vn -0.0000 -0.9910 -0.1335
vn -0.0000 -0.9780 -0.2086
vn -0.0000 -0.9621 -0.2725
vn -0.0000 0.9976 -0.0694
vn -0.0000 0.9780 -0.2086
vn -0.0000 0.9621 -0.2725
vn -0.0000 0.9910 -0.1335
vn -0.0000 -0.9976 0.0694
vn -0.0000 -0.9910 0.1335
vn -0.0000 -0.9780 0.2086
vn -0.0000 -0.9621 0.2725
vt 0.880904 0.593798
vt 0.295587 0.226948
vt 0.985289 0.298211
vt 0.295587 0.000000
vt 0.880904 0.692327
vt 0.886760 0.298211
vt 0.880904 0.790855
vt 0.098529 0.226948
vt 0.788231 0.298211
vt 0.098529 0.000000
vt 0.904627 0.790855
vt 0.202042 0.032995
vt 0.198241 0.840464
vt 0.387209 0.840464
vt 0.202042 0.221963
vt 0.973578 0.790855
vt 0.240910 0.016522
vt 0.394116 0.853637
vt 0.876156 0.790855
vt 0.847330 0.987913
vt 0.394116 0.648622
vt 0.240910 0.221536
vt 0.216101 0.026088
vt 0.198241 0.446349
vt 0.918686 0.790855
vt 0.987636 0.790855
vt 0.394116 0.446349
vt 0.216101 0.221963
vt 0.973487 0.987913
vt 0.591173 0.213061
vt 0.265527 0.221324
vt 0.265527 0.010038
vt 0.591173 0.424348
vt 0.987159 0.790855
vt 0.098529 0.271634
vt 0.886760 0.396740
vt 0.098529 0.468691
vt 0.886760 0.347475
vt 0.831640 0.692327
vt 0.806404 0.692327
vt 0.886760 0.372712
vt 0.886760 0.322648
vt 0.856468 0.692327
vt 0.985289 0.396740
vt 0.000000 0.468691
vt 0.197058 0.029890
vt 0.000000 0.271634
vt 0.197058 0.226948
vt 0.861743 0.790855
vt 0.226498 0.021854
vt 0.985289 0.199682
vt 0.985289 0.000000
vt 0.226498 0.221536
vt 0.832917 0.987913
vt 0.221086 0.226948
vt 0.806404 0.593798
vt 0.251946 0.221324
vt 0.959907 0.987913
vt 0.973578 0.790855
vt 0.251946 0.013211
vt 0.985289 0.372712
vt 0.221086 0.018086
vt 0.985289 0.199682
vt 0.276948 0.008089
vt 0.788231 0.213061
vt 0.985289 0.347475
vt 0.246322 0.008750
vt 0.831640 0.593798
vt 0.246322 0.226948
vt 0.788231 0.000000
vt 0.276948 0.221150
vt 0.977199 0.593798
vt 0.856468 0.593798
vt 0.271150 0.226948
vt 0.289789 0.006539
vt 0.998130 0.199682
vt 0.394116 0.434012
vt 0.990041 0.593798
vt 0.394116 0.219401
vt 0.289789 0.221150
vt 0.985289 0.322648
vt 0.271150 0.002949
vt 0.192073 0.032995
vt 0.904627 0.987913
vt 0.198241 0.643406
vt 0.192073 0.221963
vt 0.973578 0.593798
vt 0.387209 0.643406
vt 0.153205 0.016522
vt 0.591173 0.853637
vt 0.876156 0.987913
vt 0.153205 0.221536
vt 0.847330 0.790855
vt 0.591173 0.648622
vt 0.178014 0.026088
vt 0.198241 0.643406
vt 0.918686 0.987913
vt 0.178014 0.221963
vt 0.987636 0.593798
vt 0.394116 0.643406
vt 0.128589 0.221324
vt 0.973487 0.790855
vt 0.788231 0.213061
vt 0.128589 0.010038
vt 0.788231 0.424348
vt 0.987159 0.987913
vt 0.788231 0.396740
vt 0.197058 0.468691
vt 0.197058 0.029890
vt 0.197058 0.226948
vt 0.197058 0.271634
vt 0.167618 0.021854
vt 0.788231 0.199682
vt 0.861743 0.987913
vt 0.167618 0.221536
vt 0.832917 0.790855
vt 0.788231 0.000000
vt 0.173030 0.226948
vt 0.806404 0.790855
vt 0.142170 0.221324
vt 0.959907 0.790855
vt 0.142170 0.013211
vt 0.973578 0.987913
vt 0.788231 0.372712
vt 0.173030 0.018086
vt 0.117168 0.008089
vt 0.985289 0.396740
vt 0.591173 0.213061
vt 0.788231 0.347475
vt 0.147793 0.008750
vt 0.831640 0.790855
vt 0.147793 0.226948
vt 0.117168 0.221150
vt 0.977199 0.396740
vt 0.591173 0.000000
vt 0.856468 0.790855
vt 0.122966 0.226948
vt 0.104326 0.006539
vt 0.998130 0.396740
vt 0.591173 0.434012
vt 0.104326 0.221150
vt 0.990041 0.396740
vt 0.591173 0.219401
vt 0.788231 0.322648
vt 0.122966 0.002949
vt 0.098529 0.249291
vt 0.987636 0.692327
vt 0.987636 0.593798
vt 0.000000 0.249291
vt 0.197058 0.249291
vt 0.987636 0.790855
vt 0.197058 0.249291
vt 0.208893 0.226948
vt 0.185223 0.226948
vt 0.202913 0.226948
vt 0.788231 0.593798
vt 0.788231 0.987913
vt 0.191202 0.226948
vt 0.788231 0.790855
vt 0.202913 0.249291
vt 0.993492 0.593798
vt 0.810574 0.987913
vt 0.993492 0.692327
vt 0.810574 0.889384
vt 0.810574 0.790855
vt 0.993492 0.790855
vt 0.191202 0.249291
vt 0.932745 0.790855
vt 0.389131 0.032995
vt 0.788231 0.396740
vt 0.977199 0.396740
vt 0.389131 0.221963
vt 0.904627 0.987913
vt 0.350263 0.016522
vt 0.788231 0.840649
vt 0.876155 0.790855
vt 0.847330 0.987913
vt 0.788231 0.635635
vt 0.350263 0.221536
vt 0.375072 0.026088
vt 0.198241 0.446348
vt 0.918686 0.790855
vt 0.890568 0.987913
vt 0.394116 0.446348
vt 0.375072 0.221963
vt 0.932745 0.987913
vt 0.788231 0.424348
vt 0.325647 0.221324
vt 0.325647 0.010038
vt 0.788231 0.635635
vt 0.946326 0.790855
vt 0.492644 0.022343
vt 0.886760 0.199682
vt 0.492644 0.219401
vt 0.886760 0.248947
vt 0.930169 0.692327
vt 0.955405 0.692327
vt 0.886760 0.223710
vt 0.886760 0.273774
vt 0.905341 0.692327
vt 0.985289 0.199682
vt 0.591173 0.219401
vt 0.394116 0.029890
vt 0.591173 0.022343
vt 0.394116 0.226948
vt 0.890568 0.790855
vt 0.364676 0.021854
vt 0.000000 0.881435
vt 0.000000 0.681753
vt 0.364676 0.221536
vt 0.861743 0.987913
vt 0.370087 0.226948
vt 0.955405 0.593798
vt 0.339228 0.221324
vt 0.946326 0.987913
vt 0.959907 0.790855
vt 0.339228 0.013211
vt 0.985289 0.223710
vt 0.370087 0.018086
vt 1.000000 0.790855
vt 0.314226 0.008089
vt 0.000000 0.681753
vt 0.985289 0.248947
vt 0.344851 0.008750
vt 0.930169 0.593798
vt 0.344851 0.226948
vt 0.000000 0.468691
vt 0.314226 0.221150
vt 0.998130 0.197058
vt 0.905341 0.593798
vt 0.320023 0.226948
vt 0.301384 0.006539
vt 0.987159 0.790855
vt 0.591173 0.648622
vt 0.985289 0.197058
vt 0.591173 0.434012
vt 0.301384 0.221150
vt 0.985289 0.273774
vt 0.320023 0.002949
vt 0.004985 0.032995
vt 0.932745 0.987913
vt 0.788231 0.593798
vt 0.004985 0.221963
vt 0.904627 0.790855
vt 0.977199 0.593798
vt 0.043853 0.016522
vt 0.591173 0.840649
vt 0.876155 0.987913
vt 0.043853 0.221536
vt 0.847330 0.790855
vt 0.591173 0.635635
vt 0.019043 0.026088
vt 0.198241 0.249291
vt 0.918686 0.987913
vt 0.019043 0.221963
vt 0.890568 0.790855
vt 0.394116 0.249291
vt 0.068469 0.221324
vt 0.932745 0.790855
vt 0.591173 0.424348
vt 0.068469 0.010038
vt 0.591173 0.635635
vt 0.946326 0.987913
vt 0.788231 0.199682
vt 0.394116 0.219401
vt 0.000000 0.029890
vt 0.000000 0.226948
vt 0.394116 0.022343
vt 0.029440 0.021854
vt 0.197058 0.881435
vt 0.890568 0.987913
vt 0.029440 0.221536
vt 0.861743 0.790855
vt 0.197058 0.681753
vt 0.955405 0.790855
vt 0.024028 0.226948
vt 0.054888 0.221324
vt 0.946326 0.790855
vt 0.054888 0.013211
vt 0.959907 0.987913
vt 0.788231 0.223710
vt 0.024028 0.018086
vt 0.079890 0.008089
vt 1.000000 0.987913
vt 0.197058 0.681753
vt 0.788231 0.248947
vt 0.049264 0.008750
vt 0.930169 0.790855
vt 0.049264 0.226948
vt 0.079890 0.221150
vt 0.998130 0.000000
vt 0.197058 0.468691
vt 0.905341 0.790855
vt 0.074092 0.226948
vt 0.092731 0.006539
vt 0.987159 0.987913
vt 0.394116 0.648622
vt 0.092731 0.221150
vt 0.985289 0.000000
vt 0.394116 0.434012
vt 0.788231 0.273774
vt 0.074092 0.002949
vt 0.492644 0.000000
vt 0.394116 0.741935
vt 0.394116 0.643406
vt 0.591173 0.000000
vt 0.394116 0.249291
vt 0.394116 0.840464
vt 0.394116 0.000000
vt 0.000000 0.249291
vt 0.382280 0.226948
vt 0.011835 0.226948
vt 0.388260 0.226948
vt 0.973578 0.593798
vt 0.810574 0.790855
vt 0.973578 0.790855
vt 0.005856 0.226948
vt 0.810574 0.987913
vt 0.388260 0.249291
vt 0.388260 0.643406
vt 0.832917 0.790855
vt 0.388260 0.741935
vt 0.832917 0.889384
vt 0.832917 0.987913
vt 0.388260 0.840464
vt 0.005856 0.249291
s 0
usemtl Material.001
f 4/6/1 38/81/1 21/42/1
f 17/38/2 30/61/2 20/41/2
f 20/41/3 23/44/3 16/36/3
f 21/42/4 32/66/4 17/38/4
f 35/73/5 18/39/5 33/68/5
f 64/149/6 15/35/6 24/47/6
f 33/68/5 19/40/5 27/56/5
f 1/1/5 22/43/5 35/73/5
f 15/35/6 23/45/6 24/47/6
f 23/46/7 11/23/7 7/12/7
f 10/22/7 33/69/7 27/55/7
f 13/31/7 35/74/7 33/69/7
f 30/62/7 9/17/7 25/50/7
f 32/67/7 14/32/7 29/60/7
f 37/80/7 1/2/7 35/74/7
f 38/82/7 36/75/7 31/64/7
f 62/144/1 4/6/1 21/42/1
f 54/124/2 17/38/2 20/41/2
f 47/107/3 20/41/3 16/36/3
f 56/129/4 21/42/4 17/38/4
f 18/39/5 59/136/5 57/131/5
f 19/40/5 57/131/5 51/119/5
f 22/43/5 5/7/5 59/136/5
f 47/108/6 15/35/6 48/111/6
f 43/95/8 47/109/8 39/83/8
f 41/89/8 54/125/8 49/112/8
f 48/110/8 40/86/8 47/109/8
f 46/104/8 56/130/8 53/122/8
f 57/132/8 50/115/8 51/118/8
f 58/133/8 59/137/8 5/8/8
f 60/138/8 62/145/8 55/126/8
f 57/132/8 59/137/8 52/120/8
f 68/155/7 24/48/7 8/15/7
f 8/16/9 44/99/9 12/26/9
f 26/54/9 42/93/9 10/20/9
f 28/58/9 45/102/9 13/29/9
f 34/72/9 61/142/9 37/78/9
f 45/103/6 14/33/6 13/30/6
f 42/94/6 9/18/6 10/21/6
f 25/51/10 50/117/10 26/52/10
f 44/100/6 11/24/6 12/27/6
f 70/160/7 24/48/7 68/155/7
f 36/76/11 55/127/11 31/63/11
f 14/34/12 53/123/12 29/59/12
f 63/146/6 48/111/6 15/35/6
f 9/19/13 49/114/13 25/49/13
f 11/25/14 39/84/14 7/11/14
f 7/13/10 40/88/10 8/14/10
f 19/40/5 69/159/5 68/156/5
f 70/161/5 63/147/5 64/148/5
f 63/147/5 72/166/5 65/151/5
f 65/152/8 69/158/8 48/110/8
f 69/159/10 72/165/10 71/164/10
f 31/65/10 58/135/10 34/70/10
f 61/143/6 36/77/6 37/79/6
f 104/238/15 4/6/15 87/199/15
f 96/218/16 83/195/16 86/198/16
f 89/201/17 86/198/17 82/193/17
f 98/223/18 87/199/18 83/195/18
f 84/196/5 101/230/5 99/225/5
f 81/192/10 130/306/10 90/204/10
f 85/197/5 99/225/5 93/213/5
f 88/200/5 1/1/5 101/230/5
f 89/202/10 81/192/10 90/204/10
f 77/180/7 89/203/7 73/169/7
f 92/210/7 93/212/7 99/226/7
f 94/214/7 99/226/7 101/231/7
f 75/174/7 96/219/7 91/207/7
f 80/189/7 98/224/7 95/217/7
f 100/228/7 101/231/7 1/2/7
f 102/232/7 104/239/7 97/221/7
f 4/6/15 128/301/15 87/199/15
f 83/195/16 120/281/16 86/198/16
f 86/198/17 113/264/17 82/193/17
f 87/199/18 122/286/18 83/195/18
f 125/293/5 84/196/5 123/288/5
f 123/288/5 85/197/5 117/275/5
f 5/7/5 88/200/5 125/293/5
f 81/192/10 113/265/10 114/268/10
f 113/266/8 109/252/8 105/240/8
f 120/282/8 107/246/8 115/269/8
f 109/252/8 120/282/8 117/276/8
f 122/287/8 112/261/8 119/279/8
f 123/289/8 117/276/8 108/249/8
f 5/8/8 125/294/8 127/298/8
f 128/302/8 126/295/8 121/283/8
f 111/258/8 112/261/8 125/294/8
f 74/172/7 89/203/7 90/205/7
f 110/256/9 74/173/9 78/183/9
f 108/250/9 92/211/9 76/177/9
f 111/259/9 94/215/9 79/186/9
f 127/299/9 100/229/9 103/235/9
f 80/190/10 111/260/10 79/187/10
f 75/175/10 108/251/10 76/178/10
f 116/274/6 91/208/6 92/209/6
f 77/181/10 110/257/10 78/184/10
f 90/205/7 136/319/7 134/313/7
f 121/284/19 102/233/19 97/220/19
f 119/280/20 80/191/20 95/216/20
f 114/268/10 129/303/10 81/192/10
f 115/271/21 75/176/21 91/206/21
f 105/241/22 77/182/22 73/168/22
f 106/245/6 73/170/6 74/171/6
f 135/316/5 117/275/5 85/197/5
f 129/304/5 136/320/5 130/305/5
f 138/325/5 129/304/5 131/308/5
f 135/317/8 131/310/8 114/267/8
f 137/323/6 138/324/6 135/318/6
f 124/292/6 97/222/6 100/227/6
f 102/234/10 127/300/10 103/236/10
f 4/6/1 2/3/1 38/81/1
f 17/38/2 32/66/2 30/61/2
f 20/41/3 30/61/3 23/44/3
f 21/42/4 38/81/4 32/66/4
f 35/73/5 22/43/5 18/39/5
f 64/149/6 63/146/6 15/35/6
f 33/68/5 18/39/5 19/40/5
f 1/1/5 3/5/5 22/43/5
f 15/35/6 16/37/6 23/45/6
f 23/46/7 30/62/7 11/23/7
f 10/22/7 9/17/7 33/69/7
f 9/17/7 32/67/7 33/69/7
f 27/55/7 30/62/7 26/53/7
f 30/62/7 25/50/7 26/53/7
f 27/55/7 26/53/7 10/22/7
f 13/31/7 14/32/7 35/74/7
f 14/32/7 38/82/7 35/74/7
f 33/69/7 32/67/7 28/57/7
f 32/67/7 29/60/7 28/57/7
f 33/69/7 28/57/7 13/31/7
f 30/62/7 32/67/7 9/17/7
f 32/67/7 38/82/7 14/32/7
f 37/80/7 36/75/7 1/2/7
f 36/75/7 2/4/7 1/2/7
f 35/74/7 38/82/7 34/71/7
f 38/82/7 31/64/7 34/71/7
f 35/74/7 34/71/7 37/80/7
f 38/82/7 2/4/7 36/75/7
f 62/144/1 6/9/1 4/6/1
f 54/124/2 56/129/2 17/38/2
f 47/107/3 54/124/3 20/41/3
f 56/129/4 62/144/4 21/42/4
f 18/39/5 22/43/5 59/136/5
f 19/40/5 18/39/5 57/131/5
f 22/43/5 3/5/5 5/7/5
f 47/108/6 16/37/6 15/35/6
f 43/95/8 54/125/8 47/109/8
f 41/89/8 56/130/8 54/125/8
f 48/110/8 69/158/8 40/86/8
f 69/158/8 67/154/8 40/86/8
f 51/118/8 54/125/8 43/95/8
f 51/118/8 43/95/8 44/98/8
f 67/154/8 51/118/8 44/98/8
f 40/86/8 67/154/8 44/98/8
f 40/86/8 39/83/8 47/109/8
f 46/104/8 62/145/8 56/130/8
f 57/132/8 56/130/8 41/89/8
f 57/132/8 41/89/8 42/92/8
f 49/112/8 54/125/8 50/115/8
f 54/125/8 51/118/8 50/115/8
f 57/132/8 42/92/8 50/115/8
f 6/10/8 60/138/8 5/8/8
f 60/138/8 61/141/8 5/8/8
f 58/133/8 55/126/8 62/145/8
f 58/133/8 62/145/8 59/137/8
f 5/8/8 61/141/8 58/133/8
f 60/138/8 6/10/8 62/145/8
f 59/137/8 62/145/8 46/104/8
f 59/137/8 46/104/8 45/101/8
f 53/122/8 56/130/8 52/120/8
f 56/130/8 57/132/8 52/120/8
f 59/137/8 45/101/8 52/120/8
f 12/28/7 11/23/7 27/55/7
f 11/23/7 30/62/7 27/55/7
f 27/55/7 66/153/7 12/28/7
f 66/153/7 68/155/7 8/15/7
f 12/28/7 66/153/7 8/15/7
f 24/48/7 23/46/7 8/15/7
f 23/46/7 7/12/7 8/15/7
f 8/16/9 40/87/9 44/99/9
f 26/54/9 50/116/9 42/93/9
f 28/58/9 52/121/9 45/102/9
f 34/72/9 58/134/9 61/142/9
f 45/103/6 46/105/6 14/33/6
f 42/94/6 41/90/6 9/18/6
f 25/51/10 49/113/10 50/117/10
f 44/100/6 43/96/6 11/24/6
f 70/160/7 64/150/7 24/48/7
f 36/76/11 60/139/11 55/127/11
f 14/34/12 46/106/12 53/123/12
f 63/146/6 65/152/6 48/111/6
f 9/19/13 41/91/13 49/114/13
f 11/25/14 43/97/14 39/84/14
f 7/13/10 39/85/10 40/88/10
f 68/156/5 27/56/5 19/40/5
f 19/40/5 51/119/5 69/159/5
f 70/161/5 71/163/5 63/147/5
f 63/147/5 71/163/5 72/166/5
f 65/152/8 72/167/8 69/158/8
f 70/162/10 68/157/10 71/164/10
f 68/157/10 69/159/10 71/164/10
f 31/65/10 55/128/10 58/135/10
f 61/143/6 60/140/6 36/77/6
f 104/238/15 2/3/15 4/6/15
f 96/218/16 98/223/16 83/195/16
f 89/201/17 96/218/17 86/198/17
f 98/223/18 104/238/18 87/199/18
f 84/196/5 88/200/5 101/230/5
f 81/192/10 129/303/10 130/306/10
f 85/197/5 84/196/5 99/225/5
f 88/200/5 3/5/5 1/1/5
f 89/202/10 82/194/10 81/192/10
f 77/180/7 96/219/7 89/203/7
f 92/210/7 91/207/7 96/219/7
f 99/226/7 98/224/7 75/174/7
f 99/226/7 75/174/7 76/179/7
f 92/210/7 96/219/7 93/212/7
f 99/226/7 76/179/7 92/210/7
f 94/214/7 95/217/7 98/224/7
f 101/231/7 104/239/7 80/189/7
f 101/231/7 80/189/7 79/188/7
f 94/214/7 98/224/7 99/226/7
f 101/231/7 79/188/7 94/214/7
f 75/174/7 98/224/7 96/219/7
f 80/189/7 104/239/7 98/224/7
f 100/228/7 97/221/7 104/239/7
f 1/2/7 2/4/7 102/232/7
f 1/2/7 102/232/7 103/237/7
f 100/228/7 104/239/7 101/231/7
f 1/2/7 103/237/7 100/228/7
f 102/232/7 2/4/7 104/239/7
f 4/6/15 6/9/15 128/301/15
f 83/195/16 122/286/16 120/281/16
f 86/198/17 120/281/17 113/264/17
f 87/199/18 128/301/18 122/286/18
f 125/293/5 88/200/5 84/196/5
f 123/288/5 84/196/5 85/197/5
f 5/7/5 3/5/5 88/200/5
f 81/192/10 82/194/10 113/265/10
f 113/266/8 120/282/8 109/252/8
f 120/282/8 122/287/8 107/246/8
f 114/267/8 113/266/8 106/243/8
f 113/266/8 105/240/8 106/243/8
f 117/276/8 133/312/8 110/255/8
f 133/312/8 135/317/8 106/243/8
f 110/255/8 133/312/8 106/243/8
f 135/317/8 114/267/8 106/243/8
f 110/255/8 109/252/8 117/276/8
f 122/287/8 128/302/8 112/261/8
f 117/276/8 120/282/8 116/272/8
f 120/282/8 115/269/8 116/272/8
f 107/246/8 122/287/8 123/289/8
f 117/276/8 116/272/8 108/249/8
f 108/249/8 107/246/8 123/289/8
f 127/298/8 126/295/8 5/8/8
f 126/295/8 6/10/8 5/8/8
f 125/294/8 128/302/8 124/290/8
f 128/302/8 121/283/8 124/290/8
f 125/294/8 124/290/8 127/298/8
f 128/302/8 6/10/8 126/295/8
f 123/289/8 122/287/8 118/277/8
f 122/287/8 119/279/8 118/277/8
f 112/261/8 128/302/8 125/294/8
f 123/289/8 118/277/8 125/294/8
f 118/277/8 111/258/8 125/294/8
f 74/172/7 73/169/7 89/203/7
f 90/205/7 134/313/7 74/172/7
f 134/313/7 132/311/7 74/172/7
f 93/212/7 96/219/7 77/180/7
f 93/212/7 77/180/7 78/185/7
f 132/311/7 93/212/7 78/185/7
f 74/172/7 132/311/7 78/185/7
f 110/256/9 106/244/9 74/173/9
f 108/250/9 116/273/9 92/211/9
f 111/259/9 118/278/9 94/215/9
f 127/299/9 124/291/9 100/229/9
f 80/190/10 112/262/10 111/260/10
f 75/175/10 107/247/10 108/251/10
f 116/274/6 115/270/6 91/208/6
f 77/181/10 109/253/10 110/257/10
f 90/205/7 130/307/7 136/319/7
f 121/284/19 126/296/19 102/233/19
f 119/280/20 112/263/20 80/191/20
f 114/268/10 131/309/10 129/303/10
f 115/271/21 107/248/21 75/176/21
f 105/241/22 109/254/22 77/182/22
f 106/245/6 105/242/6 73/170/6
f 85/197/5 93/213/5 134/314/5
f 134/314/5 135/316/5 85/197/5
f 129/304/5 137/322/5 136/320/5
f 138/325/5 137/322/5 129/304/5
f 135/317/8 138/326/8 131/310/8
f 135/318/6 134/315/6 137/323/6
f 134/315/6 136/321/6 137/323/6
f 124/292/6 121/285/6 97/222/6
f 102/234/10 126/297/10 127/300/10
